<svg xmlns="http://www.w3.org/2000/svg" viewBox="0 0 64 64" width="64" height="64">
  <defs>
    <linearGradient id="g" x1="0" y1="0" x2="1" y2="1">
      <stop offset="0%" stop-color="#3B82F6"/>
      <stop offset="100%" stop-color="#8B5CF6"/>
    </linearGradient>
  </defs>
  <rect width="64" height="64" rx="14" fill="url(#g)"/>
  <path d="M21 23c0-3.3 2.7-6 6-6h10c3.3 0 6 2.7 6 6v1c0 2.2-1.8 4-4 4H27c-1.1 0-2 .9-2 2s.9 2 2 2h12c3.3 0 6 2.7 6 6v1c0 3.3-2.7 6-6 6H27c-3.3 0-6-2.7-6-6" fill="none" stroke="#fff" stroke-width="4" stroke-linecap="round" stroke-linejoin="round"/>
</svg>
